<?xml version="1.0" encoding="utf-8"?>
<!-- Svg Vector Icons : http://www.onlinewebfonts.com/icon -->
<!DOCTYPE svg PUBLIC "-//W3C//DTD SVG 1.1//EN" "http://www.w3.org/Graphics/SVG/1.1/DTD/svg11.dtd">
<svg version="1.1" xmlns="http://www.w3.org/2000/svg" xmlns:xlink="http://www.w3.org/1999/xlink" x="0px" y="0px" viewBox="0 0 1000 1000" enable-background="new 0 0 1000 1000" xml:space="preserve">
<metadata> Svg Vector Icons : http://www.onlinewebfonts.com/icon </metadata>
<g><path d="M857,165.1L374.3,686.8L981.1,407C963,314.3,919.2,231.1,857,165.1z M498.9,9.7c-66.8,0-130.5,13.5-188.6,37.6L245.4,593L568.9,14.6C546.2,11.6,522.7,9.7,498.9,9.7z M985.7,437L411.1,758.6l539.2-64.1c25.7-59.5,39.7-124.9,39.7-193.8C990,479.2,988.4,457.8,985.7,437z M773.8,907.8c64.3-43.5,117.6-101.9,155.1-170L423.5,838.1L773.8,907.8z M598.6,20L317.3,629.7L839.2,147C773.8,84.1,691.1,39.2,598.6,20z M540,990.3c54.3-4.6,106.2-17.8,154.1-38.6l-283-33.5L540,990.3z M51.4,298.9C29.2,347.8,14.9,401.1,10,456.8L86.2,593L51.4,298.9z M267.8,67.6c-69.5,37-128.6,90.3-173.2,154.6l71.4,358.4L267.8,67.6z"/></g>
</svg>